<?xml version="1.0" standalone="no"?>
<!DOCTYPE svg PUBLIC "-//W3C//DTD SVG 20010904//EN"
 "http://www.w3.org/TR/2001/REC-SVG-20010904/DTD/svg10.dtd">
<svg version="1.0" xmlns="http://www.w3.org/2000/svg"
 width="512.000000pt" height="512.000000pt" viewBox="0 0 512.000000 512.000000"
 preserveAspectRatio="xMidYMid meet">
<metadata>
Created by potrace 1.14, written by Peter Selinger 2001-2017
</metadata>
<g transform="translate(0.000000,512.000000) scale(0.100000,-0.100000)"
fill="#000000" stroke="none">
<path d="M666 4540 c-68 -21 -96 -75 -96 -189 l0 -80 -32 -5 c-145 -20 -178
-28 -242 -60 -125 -62 -215 -172 -268 -331 l-23 -70 -3 -1360 c-3 -1500 -4
-1455 59 -1584 64 -130 219 -241 384 -276 101 -21 4155 -22 4253 -1 207 45
361 211 407 438 22 113 23 2695 0 2813 -44 232 -220 387 -481 425 -43 6 -602
10 -1496 10 l-1428 0 0 90 c0 111 -14 144 -73 171 -39 17 -70 19 -487 18 -245
0 -458 -5 -474 -9z m895 -572 c163 -55 193 -274 51 -373 l-44 -30 -419 -3
c-398 -2 -420 -2 -456 17 -164 84 -162 306 2 382 37 17 72 19 436 19 273 0
407 -4 430 -12z m3181 -23 c63 -45 90 -104 86 -186 -4 -76 -32 -127 -94 -169
-51 -34 -145 -40 -200 -12 -165 85 -164 305 1 384 61 29 152 21 207 -17z
m-1621 -115 c455 -46 849 -296 1088 -689 122 -201 192 -464 192 -720 1 -339
-96 -621 -302 -881 -347 -439 -911 -632 -1454 -499 -403 99 -753 382 -933 755
-97 200 -142 398 -142 624 1 544 299 1023 791 1270 235 119 495 166 760 140z"/>
<path d="M2915 3553 c-432 -34 -783 -277 -966 -667 -63 -134 -90 -255 -96
-421 -6 -156 5 -247 42 -372 35 -115 77 -204 143 -303 287 -431 823 -614 1314
-450 492 165 816 663 767 1180 -12 129 -32 209 -80 327 -136 335 -429 588
-784 677 -54 14 -265 39 -290 34 -5 -1 -28 -3 -50 -5z"/>
</g>
</svg>
